<mxfile host="app.diagrams.net" agent="Mozilla/5.0 (Windows NT 10.0; Win64; x64) AppleWebKit/537.36 (KHTML, like Gecko) Chrome/136.0.0.0 Safari/537.36" version="26.2.14">
  <diagram name="Page-1" id="CFc8aW8Cs32at_tu9yMu">
    <mxGraphModel dx="1511" dy="909" grid="1" gridSize="10" guides="1" tooltips="1" connect="1" arrows="1" fold="1" page="1" pageScale="1" pageWidth="850" pageHeight="1100" math="0" shadow="0">
      <root>
        <mxCell id="0" />
        <mxCell id="1" parent="0" />
        <mxCell id="6GhK_BHMyIiJH8SAky1U-1" value="&#xa;  &#xa;    &#xa;      &#xa;        &#xa;        &#xa;        &#xa;        &#xa;&#xa;&#xa;&#xa;&#xa;  &#xa;    &#xa;      &#xa;        &#xa;        &#xa;          &#xa;        &#xa;        &#xa;          &#xa;        &#xa;        &#xa;          &#xa;        &#xa;        &#xa;          &#xa;        &#xa;&#xa;        &#xa;        &#xa;          &#xa;        &#xa;        &#xa;          &#xa;        &#xa;        &#xa;          &#xa;        &#xa;&#xa;        &#xa;        &#xa;          &#xa;        &#xa;        &#xa;          &#xa;        &#xa;&#xa;        &#xa;        &#xa;          &#xa;        &#xa;        &#xa;          &#xa;        &#xa;        &#xa;          &#xa;        &#xa;&#xa;        &#xa;        &#xa;          &#xa;        &#xa;        &#xa;          &#xa;        &#xa;        &#xa;          &#xa;        &#xa;        &#xa;          &#xa;        &#xa;      &#xa;    &#xa;  &#xa;" style="text;whiteSpace=wrap;html=1;" vertex="1" parent="1">
          <mxGeometry x="40" y="40" width="30" height="1100" as="geometry" />
        </mxCell>
        <mxCell id="6GhK_BHMyIiJH8SAky1U-2" value="&#xa;  &#xa;    &#xa;      &#xa;        &#xa;        &#xa;        &#xa;        &#xa;&#xa;&#xa;&#xa;&#xa;  &#xa;    &#xa;      &#xa;        &#xa;        &#xa;          &#xa;        &#xa;        &#xa;          &#xa;        &#xa;        &#xa;          &#xa;        &#xa;        &#xa;          &#xa;        &#xa;&#xa;        &#xa;        &#xa;          &#xa;        &#xa;        &#xa;          &#xa;        &#xa;        &#xa;          &#xa;        &#xa;&#xa;        &#xa;        &#xa;          &#xa;        &#xa;        &#xa;          &#xa;        &#xa;&#xa;        &#xa;        &#xa;          &#xa;        &#xa;        &#xa;          &#xa;        &#xa;        &#xa;          &#xa;        &#xa;&#xa;        &#xa;        &#xa;          &#xa;        &#xa;        &#xa;          &#xa;        &#xa;        &#xa;          &#xa;        &#xa;        &#xa;          &#xa;        &#xa;      &#xa;    &#xa;  &#xa;" style="text;whiteSpace=wrap;html=1;" vertex="1" parent="1">
          <mxGeometry x="80" y="1180" width="30" height="1100" as="geometry" />
        </mxCell>
        <mxCell id="6GhK_BHMyIiJH8SAky1U-3" value="Music Storage" style="whiteSpace=wrap;strokeWidth=2;verticalAlign=top;" vertex="1" parent="1">
          <mxGeometry x="351" y="2754" width="201" height="129" as="geometry" />
        </mxCell>
        <mxCell id="6GhK_BHMyIiJH8SAky1U-4" value="Song Files" style="whiteSpace=wrap;strokeWidth=2;" vertex="1" parent="6GhK_BHMyIiJH8SAky1U-3">
          <mxGeometry x="43" y="46" width="131" height="54" as="geometry" />
        </mxCell>
        <mxCell id="6GhK_BHMyIiJH8SAky1U-5" value="Audio Server" style="whiteSpace=wrap;strokeWidth=2;verticalAlign=top;" vertex="1" parent="1">
          <mxGeometry x="40" y="2552" width="479" height="129" as="geometry" />
        </mxCell>
        <mxCell id="6GhK_BHMyIiJH8SAky1U-6" value="Java Sound API" style="whiteSpace=wrap;strokeWidth=2;" vertex="1" parent="6GhK_BHMyIiJH8SAky1U-5">
          <mxGeometry x="43" y="46" width="167" height="54" as="geometry" />
        </mxCell>
        <mxCell id="6GhK_BHMyIiJH8SAky1U-7" value="AudioClip Manager" style="whiteSpace=wrap;strokeWidth=2;" vertex="1" parent="6GhK_BHMyIiJH8SAky1U-5">
          <mxGeometry x="260" y="46" width="193" height="54" as="geometry" />
        </mxCell>
        <mxCell id="6GhK_BHMyIiJH8SAky1U-8" value="Client Device" style="whiteSpace=wrap;strokeWidth=2;verticalAlign=top;" vertex="1" parent="1">
          <mxGeometry x="153" y="2350" width="597" height="129" as="geometry" />
        </mxCell>
        <mxCell id="6GhK_BHMyIiJH8SAky1U-9" value="Listly UI" style="whiteSpace=wrap;strokeWidth=2;" vertex="1" parent="6GhK_BHMyIiJH8SAky1U-8">
          <mxGeometry x="43" y="46" width="118" height="54" as="geometry" />
        </mxCell>
        <mxCell id="6GhK_BHMyIiJH8SAky1U-10" value="Playlist Manager" style="whiteSpace=wrap;strokeWidth=2;" vertex="1" parent="6GhK_BHMyIiJH8SAky1U-8">
          <mxGeometry x="211" y="46" width="177" height="54" as="geometry" />
        </mxCell>
        <mxCell id="6GhK_BHMyIiJH8SAky1U-11" value="LinkedList" style="whiteSpace=wrap;strokeWidth=2;" vertex="1" parent="6GhK_BHMyIiJH8SAky1U-8">
          <mxGeometry x="438" y="46" width="133" height="54" as="geometry" />
        </mxCell>
        <mxCell id="6GhK_BHMyIiJH8SAky1U-12" value="Controls Playback" style="curved=1;startArrow=none;endArrow=block;exitX=0.32;exitY=1;entryX=0.5;entryY=0;rounded=0;" edge="1" parent="1" source="6GhK_BHMyIiJH8SAky1U-8" target="6GhK_BHMyIiJH8SAky1U-5">
          <mxGeometry relative="1" as="geometry">
            <Array as="points">
              <mxPoint x="280" y="2516" />
            </Array>
          </mxGeometry>
        </mxCell>
        <mxCell id="6GhK_BHMyIiJH8SAky1U-13" value="Reads Audio Files" style="curved=1;startArrow=none;endArrow=block;exitX=0.5;exitY=1;entryX=0;entryY=0.04;rounded=0;" edge="1" parent="1" source="6GhK_BHMyIiJH8SAky1U-5" target="6GhK_BHMyIiJH8SAky1U-3">
          <mxGeometry relative="1" as="geometry">
            <Array as="points">
              <mxPoint x="280" y="2718" />
            </Array>
          </mxGeometry>
        </mxCell>
        <mxCell id="6GhK_BHMyIiJH8SAky1U-14" value="Manages Metadata" style="curved=1;startArrow=none;endArrow=block;exitX=0.68;exitY=1;entryX=1;entryY=0.04;rounded=0;" edge="1" parent="1" source="6GhK_BHMyIiJH8SAky1U-8" target="6GhK_BHMyIiJH8SAky1U-3">
          <mxGeometry relative="1" as="geometry">
            <Array as="points">
              <mxPoint x="623" y="2516" />
              <mxPoint x="623" y="2718" />
            </Array>
          </mxGeometry>
        </mxCell>
      </root>
    </mxGraphModel>
  </diagram>
</mxfile>
